<svg xmlns="http://www.w3.org/2000/svg" xmlns:xlink="http://www.w3.org/1999/xlink" width="184" height="78"><defs><path id="a" d="M0 0h183.636v78H0z"/></defs><g fill="none" fill-rule="evenodd"><mask id="b" fill="#fff"><use xlink:href="#a"/></mask><g fill="#000" mask="url(#b)"><path d="M12.48 41.514c0-2.238-1.295-3.297-2.308-3.768.848-.4 2.072-1.602 2.072-3.462 0-2.874-1.907-4.71-5.181-4.71H.327v16.768h7.019c2.99 0 5.134-1.696 5.134-4.828Zm-3.274-.165c0 1.13-.706 2.073-2.19 2.073H3.6V39.3h3.415c1.484 0 2.19.919 2.19 2.049Zm-.235-6.924c0 1.154-.778 1.931-2.167 1.931H3.6v-3.862h3.203c1.39 0 2.167.777 2.167 1.93ZM26.87 46.342v-2.92h-7.772v-4.075h6.618v-2.92h-6.618v-3.933h7.772v-2.921H15.824v16.769zM48.867 29.573h-3.415l-2.614 10.575-3.062-10.575h-2.449l-3.062 10.575-2.59-10.575h-3.416l4.475 16.769h2.732l3.085-10.174 3.085 10.174h2.732zM62.01 46.342v-2.92h-7.773v-4.075h6.618v-2.92h-6.618v-3.933h7.772v-2.921H50.963v16.769zM77.152 39.465v-2.45h-6.335v2.733h3.085v.635c0 .919-.259 1.673-.753 2.238-.59.636-1.366.942-2.332.942-.895 0-1.601-.283-2.096-.872-.66-.777-.8-1.436-.8-4.733 0-3.321.188-3.934.8-4.71.518-.59 1.225-.896 2.096-.896 1.625 0 2.614.825 3.015 2.45h3.297c-.448-2.92-2.497-5.37-6.312-5.37-1.79 0-3.297.612-4.522 1.837-.73.73-1.177 1.554-1.366 2.52-.188.942-.282 2.332-.282 4.169 0 1.837.094 3.226.282 4.168.189.942.636 1.79 1.366 2.52 1.225 1.225 2.732 1.837 4.522 1.837 1.884 0 3.439-.589 4.734-1.907 1.154-1.225 1.601-2.662 1.601-5.111ZM92.296 40.595V29.573h-3.25v10.905c0 1.93-1.154 3.085-2.92 3.085-1.767 0-2.897-1.154-2.897-3.085V29.573h-3.274v11.022c0 3.557 2.732 5.888 6.17 5.888 3.44 0 6.171-2.331 6.171-5.888ZM108.782 46.342v-16.77h-3.274v10.27l-6.64-10.27h-2.922v16.77h3.274V36.05l6.642 10.292zM124.632 39.465v-2.45h-6.335v2.733h3.085v.635c0 .919-.259 1.673-.753 2.238-.59.636-1.366.942-2.332.942-.895 0-1.601-.283-2.096-.872-.66-.777-.8-1.436-.8-4.733 0-3.321.188-3.934.8-4.71.518-.59 1.225-.896 2.096-.896 1.625 0 2.614.825 3.015 2.45h3.297c-.448-2.92-2.497-5.37-6.312-5.37-1.79 0-3.297.612-4.522 1.837-.73.73-1.177 1.554-1.366 2.52-.188.942-.282 2.332-.282 4.169 0 1.837.094 3.226.282 4.168.189.942.636 1.79 1.366 2.52 1.225 1.225 2.732 1.837 4.522 1.837 1.884 0 3.439-.589 4.734-1.907 1.154-1.225 1.601-2.662 1.601-5.111ZM139.588 34.496c0-3.015-2.12-4.923-5.182-4.923h-6.24v16.769h1.79v-6.9h4.45c3.062 0 5.182-1.932 5.182-4.946Zm-1.79 0c0 2.213-1.46 3.344-3.556 3.344h-4.287v-6.665h4.287c2.096 0 3.556 1.107 3.556 3.32ZM153.365 46.342V44.74h-8.573V29.573h-1.79v16.769zM167.214 40.807V29.573h-1.79v11.093c0 2.544-1.625 4.216-4.075 4.216-2.449 0-4.05-1.672-4.05-4.216V29.573h-1.79v11.234c0 3.345 2.449 5.676 5.84 5.676 3.392 0 5.865-2.331 5.865-5.676ZM181.933 41.726c0-1.39-.494-2.544-1.413-3.32-.706-.613-1.483-.943-3.061-1.178l-1.837-.283c-.872-.141-1.743-.471-2.261-.919-.518-.447-.754-1.107-.754-1.93 0-1.861 1.295-3.11 3.533-3.11 1.766 0 2.873.495 3.91 1.437l1.153-1.154c-1.436-1.295-2.85-1.837-4.993-1.837-3.32 0-5.37 1.884-5.37 4.734 0 1.342.425 2.379 1.272 3.132.73.636 1.767 1.06 3.086 1.272l1.954.306c1.225.189 1.65.33 2.19.8.542.472.802 1.226.802 2.097 0 1.955-1.508 3.109-3.957 3.109-1.884 0-3.18-.448-4.57-1.837l-1.224 1.224c1.578 1.578 3.227 2.214 5.747 2.214 3.485 0 5.793-1.813 5.793-4.757Z"/></g></g></svg>