<svg xmlns="http://www.w3.org/2000/svg" xmlns:xlink="http://www.w3.org/1999/xlink" width="250" height="78"><defs><path id="a" d="M0 0h250v78H0z"/></defs><g fill="none" fill-rule="evenodd"><mask id="b" fill="#fff"><use xlink:href="#a"/></mask><g fill="#000" mask="url(#b)"><path d="M15.469 46.242V29.821H12.31L8.043 38.7l-4.29-8.879H.594v16.421h3.205v-9.571l3.16 6.227h2.168l3.136-6.227v9.571zM19.298 29.821h3.206v16.421h-3.206zM38.901 46.242V29.821h-3.206v10.055l-6.504-10.055h-2.859v16.421h3.205V36.163l6.504 10.079zM42.729 29.821h3.206v16.421h-3.206zM60.372 41.399c0-1.453-.392-2.653-1.268-3.483-.692-.646-1.638-1.06-3.137-1.268l-1.937-.277c-.669-.092-1.2-.346-1.522-.646-.346-.323-.484-.761-.484-1.176 0-1.13.83-2.076 2.536-2.076 1.084 0 2.33.139 3.368 1.13l2.03-2.006c-1.408-1.36-3.045-1.914-5.305-1.914-3.552 0-5.72 2.052-5.72 4.981 0 1.384.392 2.445 1.176 3.229.738.715 1.776 1.153 3.183 1.36l1.983.277c.761.116 1.13.277 1.453.577.346.323.508.807.508 1.384 0 1.314-1.015 2.03-2.906 2.03-1.522 0-2.93-.347-3.967-1.384l-2.076 2.075c1.615 1.638 3.506 2.168 5.997 2.168 3.436 0 6.088-1.799 6.088-4.981ZM73.956 32.681v-2.86H62.171v2.86h4.29v13.561h3.206V32.681zM88.993 46.242l-3.667-7.08c1.591-.577 2.998-2.007 2.998-4.313 0-2.745-1.983-5.028-5.327-5.028h-6.435v16.42h3.206v-6.55h2.306l3.206 6.55h3.713ZM85.12 34.849c0 1.268-.923 2.168-2.33 2.168h-3.021V32.68h3.021c1.407 0 2.33.9 2.33 2.168ZM102.854 29.821h-3.483L96.35 36.44l-3.067-6.619H89.8l4.936 9.686v6.735h3.182v-6.735zM116.115 41.49h-1.753c-.438 2.007-1.891 3.322-3.944 3.322-1.084 0-2.121-.415-2.836-1.153-1.038-1.061-1.153-2.191-1.153-5.628 0-3.436.115-4.566 1.153-5.627.715-.738 1.752-1.153 2.836-1.153 2.053 0 3.46 1.314 3.898 3.321h1.799c-.554-3.09-2.745-4.89-5.697-4.89-1.614 0-3.09.6-4.197 1.707-1.545 1.546-1.545 3.16-1.545 6.642 0 3.483 0 5.097 1.545 6.642 1.107 1.107 2.583 1.707 4.197 1.707 2.93 0 5.166-1.799 5.697-4.89ZM130.852 38.031c0-3.482 0-5.096-1.545-6.642-1.107-1.107-2.56-1.706-4.198-1.706-1.637 0-3.09.6-4.197 1.706-1.545 1.546-1.545 3.16-1.545 6.642 0 3.483 0 5.097 1.545 6.642 1.107 1.107 2.56 1.707 4.197 1.707 1.638 0 3.09-.6 4.198-1.707 1.545-1.545 1.545-3.16 1.545-6.642Zm-1.753 0c0 3.437-.115 4.544-1.153 5.605-.715.738-1.753 1.176-2.837 1.176-1.084 0-2.121-.438-2.836-1.176-1.038-1.061-1.154-2.168-1.154-5.605 0-3.436.116-4.543 1.154-5.604.715-.738 1.752-1.176 2.836-1.176 1.084 0 2.122.438 2.837 1.176 1.038 1.061 1.153 2.168 1.153 5.604ZM147.111 46.242V29.821h-1.753v13.123l-8.717-13.123h-1.661v16.421h1.753V33.073l8.718 13.169zM162.056 31.389v-1.568h-10.194v16.421h1.753V39h7.195v-1.568h-7.195v-6.043zM175.432 46.242v-1.569h-8.441v-5.927h7.196v-1.568h-7.196v-5.789h8.441v-1.568h-10.194v16.421zM190.561 46.242l-3.897-7.45c2.122-.438 3.574-2.006 3.574-4.405 0-2.836-2.006-4.566-4.866-4.566h-6.296v16.42h1.753v-7.287h3.944l3.736 7.288h2.052Zm-2.075-11.831c0 2.006-1.361 2.998-3.275 2.998h-4.382v-6.02h4.382c1.914 0 3.275 1.015 3.275 3.022ZM204.399 46.242v-1.569h-8.441v-5.927h7.196v-1.568h-7.196v-5.789h8.441v-1.568h-10.194v16.421zM220.174 46.242V29.821h-1.753v13.123l-8.718-13.123h-1.66v16.421h1.753V33.073l8.717 13.169zM235.741 41.49h-1.753c-.438 2.007-1.89 3.322-3.943 3.322-1.084 0-2.122-.415-2.837-1.153-1.038-1.061-1.153-2.191-1.153-5.628 0-3.436.115-4.566 1.153-5.627.715-.738 1.753-1.153 2.837-1.153 2.052 0 3.46 1.314 3.897 3.321h1.8c-.554-3.09-2.745-4.89-5.697-4.89-1.615 0-3.09.6-4.198 1.707-1.545 1.546-1.545 3.16-1.545 6.642 0 3.483 0 5.097 1.545 6.642 1.107 1.107 2.583 1.707 4.198 1.707 2.929 0 5.166-1.799 5.696-4.89ZM249.81 46.242v-1.569h-8.441v-5.927h7.195v-1.568h-7.195v-5.789h8.441v-1.568h-10.194v16.421z"/></g></g></svg>