<svg xmlns="http://www.w3.org/2000/svg" xmlns:xlink="http://www.w3.org/1999/xlink" width="154" height="78"><defs><path id="a" d="M0 0h153.846v78H0z"/></defs><g fill="none" fill-rule="evenodd"><mask id="b" fill="#fff"><use xlink:href="#a"/></mask><g fill="#000" mask="url(#b)"><path d="M16.072 47.893V30.451h-3.356l-4.532 9.431-4.556-9.43H.271v17.441h3.406V37.727l3.356 6.614h2.303l3.331-6.614v10.166zM20.14 30.451h3.404v17.442H20.14zM38.88 42.749c0-1.544-.417-2.818-1.347-3.7-.735-.685-1.74-1.126-3.332-1.347l-2.058-.294c-.71-.098-1.274-.367-1.617-.686-.367-.343-.514-.808-.514-1.25 0-1.2.882-2.204 2.695-2.204 1.15 0 2.474.147 3.576 1.2l2.156-2.13c-1.494-1.446-3.234-2.034-5.634-2.034-3.773 0-6.076 2.18-6.076 5.291 0 1.47.417 2.597 1.25 3.43.783.76 1.886 1.225 3.38 1.445l2.107.294c.808.123 1.2.294 1.543.613.368.343.54.857.54 1.47 0 1.396-1.079 2.155-3.087 2.155-1.617 0-3.112-.367-4.214-1.47l-2.205 2.205c1.715 1.74 3.724 2.303 6.37 2.303 3.65 0 6.467-1.91 6.467-5.291ZM53.211 42.749c0-1.544-.416-2.818-1.347-3.7-.735-.685-1.74-1.126-3.332-1.347l-2.058-.294c-.71-.098-1.274-.367-1.617-.686-.367-.343-.514-.808-.514-1.25 0-1.2.882-2.204 2.695-2.204 1.151 0 2.474.147 3.576 1.2l2.156-2.13c-1.494-1.446-3.233-2.034-5.634-2.034-3.773 0-6.076 2.18-6.076 5.291 0 1.47.417 2.597 1.25 3.43.784.76 1.886 1.225 3.38 1.445l2.107.294c.809.123 1.2.294 1.544.613.367.343.538.857.538 1.47 0 1.396-1.077 2.155-3.086 2.155-1.617 0-3.111-.367-4.214-1.47l-2.205 2.205c1.715 1.74 3.724 2.303 6.37 2.303 3.65 0 6.467-1.91 6.467-5.291ZM56.42 30.451h3.405v17.442H56.42zM76.19 39.172c0-3.013.025-5.194-1.74-6.957-1.224-1.225-2.718-1.911-4.703-1.911-1.984 0-3.503.686-4.728 1.91-1.764 1.764-1.715 3.945-1.715 6.958 0 3.013-.049 5.194 1.715 6.957 1.225 1.225 2.744 1.911 4.728 1.911 1.985 0 3.479-.686 4.704-1.91 1.764-1.764 1.74-3.945 1.74-6.958Zm-3.405 0c0 3.356-.196 4.165-.858 4.9-.49.563-1.249.93-2.18.93-.93 0-1.715-.367-2.205-.93-.661-.735-.833-1.544-.833-4.9 0-3.356.172-4.165.833-4.9.49-.563 1.274-.93 2.205-.93s1.69.367 2.18.93c.662.735.858 1.544.858 4.9ZM93.02 47.893V30.451h-3.405v10.681l-6.909-10.68H79.67v17.441h3.405V37.188l6.908 10.705zM109.458 35.57c0-3.135-2.205-5.12-5.39-5.12h-6.491v17.443h1.862v-7.178h4.63c3.184 0 5.39-2.008 5.39-5.144Zm-1.862 0c0 2.304-1.519 3.48-3.699 3.48H99.44v-6.933h4.458c2.18 0 3.7 1.151 3.7 3.454ZM123.79 47.893v-1.666h-8.918V30.451h-1.862v17.442zM138.194 42.136V30.451h-1.862v11.538c0 2.646-1.69 4.385-4.238 4.385-2.548 0-4.214-1.739-4.214-4.385V30.451h-1.861v11.685c0 3.479 2.547 5.904 6.075 5.904s6.1-2.425 6.1-5.904ZM153.505 43.092c0-1.446-.514-2.646-1.47-3.455-.735-.637-1.543-.98-3.184-1.224l-1.911-.294c-.907-.147-1.813-.49-2.352-.956-.539-.465-.784-1.151-.784-2.009 0-1.935 1.347-3.233 3.675-3.233 1.837 0 2.988.514 4.066 1.494l1.2-1.2c-1.494-1.348-2.964-1.911-5.193-1.911-3.454 0-5.585 1.96-5.585 4.924 0 1.396.44 2.474 1.323 3.258.759.661 1.837 1.102 3.209 1.323l2.033.318c1.274.196 1.715.343 2.278.833.564.49.833 1.274.833 2.18 0 2.034-1.568 3.234-4.115 3.234-1.96 0-3.308-.465-4.753-1.91l-1.274 1.273c1.642 1.642 3.356 2.303 5.978 2.303 3.625 0 6.026-1.886 6.026-4.948Z"/></g></g></svg>