<svg xmlns="http://www.w3.org/2000/svg" xml:space="preserve" width="199.5" height="78" style="enable-background:new 0 0 199.5 78"><path d="M12.7 46.4v-9.9l-3.2 6.4H7.2l-3.3-6.4v9.9H.6V29.5h3.3l4.4 9.2 4.4-9.2H16v16.9h-3.3zM31.8 40c0 .6-.1 1.2-.2 1.8-.1.6-.3 1.1-.5 1.6s-.6.9-1 1.4c-.6.6-1.3 1.1-2 1.4s-1.6.5-2.6.5-1.8-.2-2.6-.5c-.7-.3-1.4-.8-2-1.4-.4-.4-.8-.9-1-1.4-.2-.5-.4-1-.5-1.6s-.2-1.2-.2-1.8v-4c0-.6.1-1.2.2-1.8.1-.6.3-1.1.5-1.6s.6-.9 1-1.4c.6-.6 1.3-1.1 2-1.4.7-.3 1.6-.5 2.6-.5s1.8.2 2.6.5 1.4.8 2 1.4c.4.4.8.9 1 1.4s.4 1 .5 1.6c.1.6.2 1.2.2 1.8v2c0 .7.1 1.3 0 2zm-3.3-4.1c0-.5-.1-1-.1-1.3-.1-.3-.2-.6-.3-.8-.1-.2-.2-.4-.4-.6-.2-.3-.5-.5-.9-.7-.4-.2-.8-.2-1.2-.2-.5 0-.9.1-1.2.2-.4.2-.7.4-.9.7-.2.2-.3.4-.4.6-.1.2-.2.5-.2.8s-.1.8-.1 1.3v4c0 .5.1 1 .1 1.3s.1.6.2.8c.1.2.2.4.4.6.2.3.5.5.9.7.4.2.8.2 1.2.2.5 0 .9-.1 1.2-.2.4-.2.7-.4.9-.7.2-.2.3-.4.4-.6.1-.2.2-.5.3-.8.1-.3.1-.8.1-1.3v-2c.1-.8 0-1.5 0-2zM47 43c-.3.7-.8 1.4-1.3 1.9-.6.5-1.2.9-2 1.2-.8.3-1.6.4-2.4.4-.9 0-1.7-.1-2.4-.4-.8-.3-1.4-.7-2-1.2-.6-.5-1-1.1-1.3-1.9-.3-.7-.5-1.5-.5-2.5v-11h3.3v11c0 1 .3 1.7.8 2.3.5.5 1.2.8 2.1.8s1.6-.3 2.2-.8c.5-.5.8-1.3.8-2.3v-11h3.3v11.1c-.1.9-.3 1.7-.6 2.4zM57.3 46.4h-2.5l-5.6-16.9h3.4l3.4 11 3.4-11h3.5l-5.6 16.9zM65 46.4V29.5h11.2v3h-7.9v4H75v3h-6.7v4.1h7.9v3H65zM91.4 46.4v-9.9l-3.2 6.4H86l-3.3-6.4v9.9h-3.3V29.5h3.3l4.4 9.2 4.4-9.2h3.3v16.9h-3.4zM98.7 46.4V29.5h11.2v3H102v4h6.7v3H102v4.1h7.9v3H98.7zM123.1 46.4 116.4 36v10.4h-3.3V29.5h3l6.7 10.4V29.5h3.3v16.9h-3zM136.5 32.4v14h-3.3v-14h-4.4v-3H141v3h-4.5zM150.4 39.4h-4.5v7h-1.8v-17h6.3c1.6 0 2.8.4 3.8 1.3s1.4 2.1 1.4 3.6-.5 2.7-1.4 3.6-2.3 1.5-3.8 1.5zm-.2-8.3h-4.3v6.7h4.3c1.1 0 2-.3 2.6-.9s1-1.4 1-2.5-.3-1.9-1-2.5c-.6-.5-1.5-.8-2.6-.8zM159 46.4v-17h1.8v15.4h8.7v1.6H159zM178.4 46.5c-1.7 0-3.1-.5-4.2-1.6s-1.7-2.4-1.7-4.1V29.5h1.8v11.2c0 1.3.4 2.3 1.1 3.1s1.7 1.2 3 1.2c1.2 0 2.2-.4 3-1.2s1.1-1.8 1.1-3.1V29.5h1.8v11.4c0 1.7-.6 3.1-1.7 4.1-1.1 1-2.5 1.5-4.2 1.5zM193.3 46.5c-1.3 0-2.4-.2-3.3-.5-.9-.3-1.7-.9-2.5-1.7l1.2-1.2c.7.7 1.4 1.2 2.1 1.4.7.3 1.6.4 2.5.4 1.2 0 2.2-.3 2.9-.8.7-.6 1.1-1.3 1.1-2.3 0-.9-.2-1.6-.6-1.9s-.8-.6-1.1-.7c-.3-.1-.8-.2-1.4-.3l-2-.3c-1.3-.2-2.4-.7-3.2-1.4s-1.2-1.7-1.2-3.1c0-1.4.5-2.6 1.5-3.5 1-.9 2.3-1.3 4-1.3 1.1 0 2 .1 2.8.4.8.3 1.5.8 2.3 1.4l-1.2 1.2c-.5-.5-1.1-.8-1.7-1.1s-1.4-.4-2.2-.4c-1.1 0-2 .3-2.6.8-.6.6-.9 1.3-.9 2.3 0 .9.2 1.4.6 1.8s.8.6 1.2.7c.4.2.8.3 1.3.4l1.9.3c.8.1 1.4.3 1.9.4.5.2 1 .6 1.7 1.1s1 1.6 1 3c0 1.5-.5 2.6-1.6 3.5-1.3 1-2.7 1.4-4.5 1.4z"/></svg>