<svg xmlns="http://www.w3.org/2000/svg" xmlns:xlink="http://www.w3.org/1999/xlink" width="135" height="78"><defs><path id="a" d="M0 0h134.667v78H0z"/></defs><g fill="none" fill-rule="evenodd"><mask id="b" fill="#fff"><use xlink:href="#a"/></mask><g fill="#000" mask="url(#b)"><path d="M13.913 29.811h-3.647l-3.165 6.933-3.212-6.933H.242l5.169 10.145v7.053h3.333v-7.053zM27.874 38.41c0-2.97.025-5.12-1.715-6.86-1.207-1.207-2.68-1.883-4.637-1.883-1.957 0-3.454.676-4.662 1.884-1.74 1.739-1.69 3.889-1.69 6.86 0 2.97-.05 5.12 1.69 6.86 1.208 1.207 2.705 1.884 4.662 1.884 1.956 0 3.43-.677 4.637-1.884 1.74-1.74 1.715-3.89 1.715-6.86Zm-3.357 0c0 3.31-.193 4.107-.846 4.832-.483.555-1.231.917-2.15.917-.917 0-1.69-.362-2.173-.917-.652-.725-.821-1.522-.821-4.831 0-3.31.169-4.107.82-4.831.484-.556 1.257-.918 2.175-.918.918 0 1.666.362 2.15.918.652.724.845 1.521.845 4.83ZM43.696 41.116V29.812h-3.334v11.183c0 1.98-1.183 3.164-2.995 3.164-1.811 0-2.97-1.183-2.97-3.164V29.812h-3.358v11.304c0 3.647 2.802 6.039 6.328 6.039 3.527 0 6.329-2.392 6.329-6.04ZM58.502 32.806v-2.995H46.159v2.995h4.493V47.01h3.358V32.806zM73.768 47.01V29.81h-3.357v7.03h-5.822v-7.03h-3.357V47.01h3.357v-7.198h5.822v7.198zM89.976 34.86c0-3.092-2.174-5.048-5.314-5.048H78.26V47.01h1.836v-7.078h4.565c3.14 0 5.314-1.98 5.314-5.072Zm-1.836 0c0 2.27-1.497 3.43-3.647 3.43h-4.396v-6.836h4.396c2.15 0 3.647 1.135 3.647 3.406ZM104.106 47.01v-1.643h-8.792V29.811h-1.836V47.01zM118.31 41.333V29.812h-1.837v11.376c0 2.61-1.666 4.324-4.178 4.324s-4.155-1.715-4.155-4.324V29.812h-1.836v11.521c0 3.43 2.512 5.822 5.99 5.822 3.479 0 6.015-2.392 6.015-5.822ZM133.406 42.275c0-1.425-.507-2.608-1.45-3.405-.724-.628-1.521-.967-3.14-1.208l-1.884-.29c-.893-.145-1.787-.483-2.318-.942-.532-.459-.773-1.135-.773-1.98 0-1.909 1.328-3.19 3.623-3.19 1.811 0 2.947.508 4.01 1.474l1.183-1.183c-1.473-1.329-2.923-1.884-5.12-1.884-3.407 0-5.508 1.932-5.508 4.855 0 1.377.435 2.44 1.304 3.212.75.652 1.812 1.087 3.165 1.305l2.004.314c1.256.193 1.691.338 2.247.82.555.484.821 1.257.821 2.15 0 2.006-1.546 3.19-4.058 3.19-1.932 0-3.26-.46-4.686-1.885l-1.256 1.256c1.618 1.618 3.31 2.27 5.894 2.27 3.575 0 5.942-1.86 5.942-4.879Z"/></g></g></svg>